<?xml version="1.0" standalone="no"?>
<!DOCTYPE svg PUBLIC "-//W3C//DTD SVG 20010904//EN"
 "http://www.w3.org/TR/2001/REC-SVG-20010904/DTD/svg10.dtd">
<svg version="1.0" xmlns="http://www.w3.org/2000/svg"
 width="512.000000pt" height="512.000000pt" viewBox="0 0 512.000000 512.000000"
 preserveAspectRatio="xMidYMid meet">
<metadata>
Created by potrace 1.11, written by Peter Selinger 2001-2013
</metadata>
<g transform="translate(0.000000,512.000000) scale(0.100000,-0.100000)"
fill="#000000" stroke="none">
<path d="M1792 4788 c0 -139 -1 -262 -1 -273 -1 -20 -7 -20 -703 -20 l-703 0
-3 -272 -2 -273 2180 0 2180 0 -2 273 -3 272 -702 0 -703 0 0 272 0 273 -769
0 -769 0 0 -252z"/>
<path d="M607 3702 c-31 -4 -31 -2 -12 -132 2 -14 6 -47 9 -75 3 -27 10 -81
15 -120 6 -38 13 -92 16 -120 3 -27 10 -79 15 -115 5 -36 12 -92 15 -125 3
-33 8 -71 11 -85 2 -14 6 -45 9 -70 10 -89 17 -143 20 -161 2 -10 6 -44 10
-76 3 -32 8 -69 10 -83 4 -29 12 -92 20 -165 3 -27 8 -61 10 -75 2 -14 7 -50
10 -80 3 -30 7 -66 10 -80 2 -14 7 -45 10 -70 2 -25 16 -135 30 -245 15 -110
28 -220 31 -245 3 -25 9 -74 14 -110 5 -36 12 -87 15 -115 6 -47 22 -173 30
-240 7 -56 16 -130 21 -170 2 -22 7 -56 10 -75 3 -19 7 -51 9 -70 2 -19 7 -53
9 -75 7 -52 16 -123 21 -160 2 -16 7 -56 10 -88 4 -32 8 -68 11 -80 2 -12 7
-49 10 -82 4 -33 8 -67 9 -75 2 -8 6 -45 10 -83 l8 -67 1526 2 1526 3 7 49 c4
26 10 76 13 110 4 33 8 68 10 76 1 8 6 42 9 75 4 33 9 71 11 85 6 31 13 90 20
155 3 28 8 68 11 90 4 22 7 51 9 65 1 14 6 50 10 80 4 30 9 66 10 80 3 35 14
119 30 235 8 55 16 123 19 150 4 28 8 66 11 85 2 19 7 58 10 85 4 28 8 61 10
75 2 14 7 48 10 75 3 28 10 86 15 130 14 106 19 142 35 273 2 20 9 73 15 117
6 44 13 100 16 125 2 25 7 63 10 85 7 49 12 86 19 145 3 25 8 65 11 90 4 25 7
56 9 70 1 14 5 48 9 75 4 28 9 66 11 85 14 116 18 147 20 161 2 9 6 40 10 70
10 86 13 117 29 239 9 63 18 138 21 165 3 28 7 59 9 70 2 11 7 46 10 78 7 51
5 57 -11 58 -60 2 -3893 3 -3916 1z m1259 -1729 l-1 -1088 -147 -1 -148 -1 0
1088 0 1089 148 0 148 0 0 -1087z m844 -1 l0 -1089 -147 1 -148 1 -3 1088 -2
1087 150 0 150 0 0 -1088z m840 -1 l0 -1089 -148 1 -148 1 0 1088 0 1088 148
0 148 0 0 -1089z"/>
</g>
</svg>
